<svg width="1118" height="433" viewBox="0 0 1118 433" fill="none" xmlns="http://www.w3.org/2000/svg">
<rect y="2" width="1062" height="431" rx="30" fill="#1D4ED8"/>
<path d="M317.583 225.32L309.275 250.344M349.143 152.452L340.836 177.476M326.705 242.239L300.154 233.424M358.265 169.371L331.714 160.557M395.607 167.878L398.011 199.544C398.269 202.939 398.398 204.636 398.936 206.21C399.412 207.605 400.123 208.924 401.041 210.114C402.075 211.456 403.461 212.57 406.233 214.795L432.093 235.554L398.953 236.726C395.4 236.851 393.623 236.914 391.991 237.372C390.544 237.777 389.186 238.409 387.97 239.242C386.597 240.181 385.479 241.465 383.242 244.031L362.377 267.973L359.973 236.306C359.715 232.912 359.586 231.214 359.048 229.641C358.571 228.245 357.86 226.927 356.943 225.736C355.909 224.394 354.523 223.281 351.75 221.055L325.89 200.296L359.031 199.124C362.584 198.999 364.361 198.936 365.992 198.478C367.439 198.073 368.798 197.441 370.014 196.608C371.387 195.669 372.505 194.385 374.742 191.819L395.607 167.878Z" stroke="black" stroke-width="8.33333" stroke-linecap="round" stroke-linejoin="round"/>
<path d="M751.327 139.188C746.146 137.8 741.791 135.657 738.262 132.758C734.761 129.844 732.29 126.464 730.85 122.619C729.431 118.78 729.262 114.759 730.342 110.554L748.123 115.318C747.566 117.663 747.969 119.759 749.332 121.607C750.718 123.461 752.618 124.711 755.033 125.358C756.899 125.858 758.651 125.904 760.29 125.496C761.935 125.066 763.36 124.225 764.567 122.971C765.773 121.718 766.627 120.112 767.128 118.152C767.68 116.182 767.743 114.364 767.319 112.697C766.901 111.009 766.085 109.578 764.869 108.406C763.66 107.211 762.123 106.364 760.257 105.864C758.325 105.346 756.409 105.339 754.51 105.842C752.638 106.328 751.098 107.292 749.888 108.733L734.666 101.266L747.253 64.8272L792.563 76.9681L788.646 91.5887L758.351 83.4712L753.046 98.0023L753.441 98.1082C755.041 96.3489 757.317 95.1468 760.266 94.5018C763.221 93.8348 766.411 93.9601 769.835 94.8778C773.853 95.9542 777.181 97.846 779.82 100.553C782.482 103.266 784.282 106.513 785.222 110.294C786.189 114.06 786.089 118.08 784.92 122.354C783.683 127.058 781.446 130.929 778.208 133.968C774.998 136.99 771.086 138.989 766.472 139.964C761.864 140.917 756.816 140.659 751.327 139.188ZM815.482 157.367C809.363 155.704 804.452 152.87 800.748 148.866C797.044 144.862 794.694 139.891 793.697 133.953C792.7 128.016 793.203 121.351 795.208 113.958C797.218 106.544 800.113 100.567 803.894 96.0275C807.697 91.4937 812.178 88.4708 817.336 86.9588C822.516 85.4527 828.168 85.5202 834.293 87.1614C840.418 88.8025 845.344 91.5812 849.071 95.4975C852.804 99.3918 855.184 104.253 856.21 110.081C857.237 115.909 856.748 122.519 854.744 129.911C852.75 137.353 849.836 143.396 846.004 148.039C842.172 152.683 837.651 155.813 832.441 157.429C827.26 159.028 821.607 159.008 815.482 157.367ZM819.47 142.483C822.631 143.33 825.663 142.377 828.565 139.625C831.495 136.858 833.898 131.925 835.776 124.829C837.018 120.197 837.571 116.286 837.437 113.098C837.304 109.909 836.613 107.394 835.365 105.554C834.123 103.692 832.448 102.478 830.34 101.914C827.179 101.067 824.17 101.978 821.314 104.648C818.457 107.318 816.078 112.115 814.175 119.041C812.888 123.755 812.297 127.761 812.401 131.059C812.512 134.336 813.185 136.916 814.421 138.8C815.68 140.69 817.362 141.918 819.47 142.483ZM896.32 163.498L897.273 159.942C898.037 157.088 899.358 154.618 901.234 152.533C903.133 150.453 905.464 148.996 908.229 148.16C910.994 147.324 914.078 147.363 917.481 148.274C920.971 149.21 923.708 150.719 925.691 152.804C927.695 154.894 928.989 157.311 929.571 160.055C930.153 162.799 930.056 165.62 929.28 168.518L928.327 172.074C927.562 174.928 926.231 177.395 924.332 179.474C922.456 181.56 920.124 183.017 917.337 183.847C914.55 184.677 911.434 184.63 907.987 183.706C904.54 182.783 901.829 181.268 899.852 179.162C897.875 177.056 896.596 174.63 896.013 171.886C895.453 169.148 895.555 166.352 896.32 163.498ZM908.732 163.012L907.779 166.568C907.444 167.82 907.419 169.142 907.704 170.537C908.017 171.915 909.041 172.836 910.775 173.301C912.597 173.789 913.953 173.517 914.841 172.484C915.751 171.458 916.383 170.286 916.736 168.968L917.689 165.412C918.042 164.095 918.109 162.748 917.889 161.372C917.67 159.995 916.616 159.054 914.728 158.548C912.994 158.084 911.644 158.381 910.678 159.439C909.733 160.504 909.085 161.695 908.732 163.012ZM871.361 115.446L872.313 111.89C873.09 108.992 874.427 106.503 876.326 104.424C878.246 102.35 880.586 100.907 883.345 100.093C886.104 99.2794 889.163 99.3226 892.522 100.223C896.012 101.158 898.749 102.668 900.732 104.752C902.736 106.842 904.03 109.259 904.612 112.003C905.194 114.747 905.097 117.568 904.321 120.466L903.368 124.022C902.591 126.92 901.257 129.398 899.364 131.456C897.494 133.519 895.171 134.944 892.396 135.729C889.621 136.515 886.51 136.446 883.063 135.523C879.616 134.599 876.902 133.095 874.919 131.011C872.936 128.927 871.651 126.524 871.063 123.802C870.497 121.085 870.596 118.3 871.361 115.446ZM883.905 114.996L882.952 118.552C882.599 119.869 882.571 121.203 882.868 122.553C883.165 123.903 884.148 124.802 885.816 125.249C887.638 125.737 888.993 125.465 889.882 124.432C890.792 123.406 891.424 122.234 891.777 120.917L892.73 117.36C893.083 116.043 893.149 114.696 892.93 113.32C892.71 111.943 891.657 111.002 889.769 110.496C888.035 110.032 886.7 110.357 885.767 111.471C884.861 112.569 884.24 113.744 883.905 114.996ZM863.229 168.184L927.664 113.168L937.016 115.674L872.581 170.69L863.229 168.184Z" fill="black"/>
<path d="M884.355 247.511C886.104 255.084 886.106 261.813 884.362 267.697C882.613 273.559 879.546 278.407 875.16 282.242C870.768 286.055 865.495 288.672 859.338 290.093C853.138 291.525 847.226 291.478 841.603 289.954C835.996 288.403 831.122 285.376 826.981 280.874C822.856 276.345 819.925 270.316 818.187 262.787C816.438 255.213 816.427 248.498 818.154 242.641C819.898 236.757 822.954 231.912 827.323 228.104C831.709 224.269 837.003 221.636 843.203 220.204C849.36 218.783 855.249 218.834 860.873 220.358C866.491 221.86 871.373 224.873 875.52 229.397C879.662 233.899 882.607 239.937 884.355 247.511ZM865.355 251.897C864.414 247.822 863.079 244.515 861.35 241.976C859.638 239.409 857.564 237.648 855.127 236.694C852.708 235.713 849.971 235.576 846.915 236.281C843.859 236.987 841.448 238.313 839.682 240.26C837.932 242.18 836.84 244.672 836.404 247.735C835.985 250.77 836.246 254.326 837.187 258.4C838.127 262.475 839.454 265.796 841.166 268.363C842.895 270.902 844.97 272.663 847.389 273.644C849.825 274.597 852.571 274.721 855.627 274.016C858.683 273.31 861.085 271.998 862.835 270.078C864.601 268.13 865.693 265.639 866.112 262.603C866.548 259.54 866.296 255.972 865.355 251.897ZM900.753 279.552L885.047 211.523L932.88 200.48L936.316 215.362L906.952 222.141L909.651 233.833L936.092 227.729L939.528 242.61L913.087 248.715L919.222 275.288L900.753 279.552ZM955.379 266.941L939.673 198.912L987.506 187.869L990.941 202.75L961.577 209.529L964.277 221.222L990.718 215.118L994.153 229.999L967.712 236.103L973.847 262.677L955.379 266.941Z" fill="black"/>
<path d="M588.318 346.545C585.955 346.545 583.881 345.983 582.097 344.858C580.324 343.733 578.937 342.159 577.937 340.136C576.949 338.114 576.455 335.75 576.455 333.045C576.455 330.318 576.949 327.937 577.937 325.903C578.937 323.869 580.324 322.29 582.097 321.165C583.881 320.04 585.955 319.477 588.318 319.477C590.682 319.477 592.75 320.04 594.523 321.165C596.307 322.29 597.693 323.869 598.682 325.903C599.682 327.937 600.182 330.318 600.182 333.045C600.182 335.75 599.682 338.114 598.682 340.136C597.693 342.159 596.307 343.733 594.523 344.858C592.75 345.983 590.682 346.545 588.318 346.545ZM588.318 342.932C590.114 342.932 591.591 342.472 592.75 341.551C593.909 340.631 594.767 339.42 595.324 337.92C595.881 336.42 596.159 334.795 596.159 333.045C596.159 331.295 595.881 329.665 595.324 328.153C594.767 326.642 593.909 325.42 592.75 324.489C591.591 323.557 590.114 323.091 588.318 323.091C586.523 323.091 585.045 323.557 583.886 324.489C582.727 325.42 581.869 326.642 581.312 328.153C580.756 329.665 580.477 331.295 580.477 333.045C580.477 334.795 580.756 336.42 581.312 337.92C581.869 339.42 582.727 340.631 583.886 341.551C585.045 342.472 586.523 342.932 588.318 342.932ZM610.345 330.25V346H606.322V319.818H610.209V323.909H610.55C611.163 322.58 612.095 321.511 613.345 320.705C614.595 319.886 616.209 319.477 618.186 319.477C619.959 319.477 621.51 319.841 622.839 320.568C624.169 321.284 625.203 322.375 625.942 323.841C626.68 325.295 627.05 327.136 627.05 329.364V346H623.027V329.636C623.027 327.58 622.493 325.977 621.425 324.83C620.357 323.67 618.891 323.091 617.027 323.091C615.743 323.091 614.595 323.369 613.584 323.926C612.584 324.483 611.794 325.295 611.214 326.364C610.635 327.432 610.345 328.727 610.345 330.25ZM659.287 319.818V323.227H645.719V319.818H659.287ZM649.673 313.545H653.696V338.5C653.696 339.636 653.861 340.489 654.19 341.057C654.531 341.614 654.963 341.989 655.486 342.182C656.02 342.364 656.582 342.455 657.173 342.455C657.616 342.455 657.98 342.432 658.264 342.386C658.548 342.33 658.776 342.284 658.946 342.25L659.764 345.864C659.491 345.966 659.111 346.068 658.622 346.17C658.134 346.284 657.514 346.341 656.764 346.341C655.628 346.341 654.514 346.097 653.423 345.608C652.344 345.119 651.446 344.375 650.73 343.375C650.026 342.375 649.673 341.114 649.673 339.591V313.545ZM669.923 330.25V346H665.901V311.091H669.923V323.909H670.264C670.878 322.557 671.798 321.483 673.026 320.687C674.264 319.881 675.912 319.477 677.969 319.477C679.753 319.477 681.315 319.835 682.656 320.551C683.997 321.256 685.037 322.341 685.776 323.807C686.526 325.261 686.901 327.114 686.901 329.364V346H682.878V329.636C682.878 327.557 682.338 325.949 681.259 324.812C680.19 323.665 678.707 323.091 676.81 323.091C675.491 323.091 674.31 323.369 673.264 323.926C672.23 324.483 671.412 325.295 670.81 326.364C670.219 327.432 669.923 328.727 669.923 330.25ZM705.237 346.545C702.714 346.545 700.538 345.989 698.709 344.875C696.891 343.75 695.487 342.182 694.499 340.17C693.521 338.148 693.033 335.795 693.033 333.114C693.033 330.432 693.521 328.068 694.499 326.023C695.487 323.966 696.862 322.364 698.624 321.216C700.396 320.057 702.464 319.477 704.828 319.477C706.192 319.477 707.538 319.705 708.868 320.159C710.197 320.614 711.408 321.352 712.499 322.375C713.589 323.386 714.459 324.727 715.107 326.398C715.754 328.068 716.078 330.125 716.078 332.568V334.273H695.896V330.795H711.987C711.987 329.318 711.692 328 711.101 326.841C710.521 325.682 709.692 324.767 708.612 324.097C707.544 323.426 706.283 323.091 704.828 323.091C703.226 323.091 701.839 323.489 700.669 324.284C699.51 325.068 698.618 326.091 697.993 327.352C697.368 328.614 697.055 329.966 697.055 331.409V333.727C697.055 335.705 697.396 337.381 698.078 338.756C698.771 340.119 699.732 341.159 700.959 341.875C702.186 342.58 703.612 342.932 705.237 342.932C706.294 342.932 707.249 342.784 708.101 342.489C708.964 342.182 709.709 341.727 710.334 341.125C710.959 340.511 711.442 339.75 711.783 338.841L715.669 339.932C715.26 341.25 714.572 342.409 713.607 343.409C712.641 344.398 711.447 345.17 710.027 345.727C708.607 346.273 707.01 346.545 705.237 346.545ZM735.697 355.818V319.818H739.584V323.977H740.061C740.357 323.523 740.766 322.943 741.288 322.239C741.822 321.523 742.584 320.886 743.572 320.33C744.572 319.761 745.925 319.477 747.629 319.477C749.834 319.477 751.777 320.028 753.459 321.131C755.141 322.233 756.453 323.795 757.396 325.818C758.339 327.841 758.811 330.227 758.811 332.977C758.811 335.75 758.339 338.153 757.396 340.187C756.453 342.21 755.146 343.778 753.476 344.892C751.805 345.994 749.879 346.545 747.697 346.545C746.016 346.545 744.669 346.267 743.658 345.71C742.646 345.142 741.868 344.5 741.322 343.784C740.777 343.057 740.357 342.455 740.061 341.977H739.72V355.818H735.697ZM739.652 332.909C739.652 334.886 739.942 336.631 740.521 338.142C741.101 339.642 741.947 340.818 743.061 341.67C744.175 342.511 745.538 342.932 747.152 342.932C748.834 342.932 750.237 342.489 751.362 341.602C752.499 340.705 753.351 339.5 753.919 337.989C754.499 336.466 754.788 334.773 754.788 332.909C754.788 331.068 754.504 329.409 753.936 327.932C753.379 326.443 752.533 325.267 751.396 324.403C750.271 323.528 748.857 323.091 747.152 323.091C745.516 323.091 744.141 323.506 743.027 324.335C741.913 325.153 741.072 326.301 740.504 327.778C739.936 329.244 739.652 330.955 739.652 332.909ZM764.947 346V319.818H768.834V323.773H769.107C769.584 322.477 770.447 321.426 771.697 320.619C772.947 319.812 774.357 319.409 775.925 319.409C776.22 319.409 776.589 319.415 777.033 319.426C777.476 319.437 777.811 319.455 778.038 319.477V323.568C777.902 323.534 777.589 323.483 777.101 323.415C776.624 323.335 776.118 323.295 775.584 323.295C774.311 323.295 773.175 323.562 772.175 324.097C771.186 324.619 770.402 325.347 769.822 326.278C769.254 327.199 768.97 328.25 768.97 329.432V346H764.947ZM792.646 346.545C790.283 346.545 788.209 345.983 786.425 344.858C784.652 343.733 783.266 342.159 782.266 340.136C781.277 338.114 780.783 335.75 780.783 333.045C780.783 330.318 781.277 327.937 782.266 325.903C783.266 323.869 784.652 322.29 786.425 321.165C788.209 320.04 790.283 319.477 792.646 319.477C795.01 319.477 797.078 320.04 798.851 321.165C800.635 322.29 802.021 323.869 803.01 325.903C804.01 327.937 804.51 330.318 804.51 333.045C804.51 335.75 804.01 338.114 803.01 340.136C802.021 342.159 800.635 343.733 798.851 344.858C797.078 345.983 795.01 346.545 792.646 346.545ZM792.646 342.932C794.442 342.932 795.919 342.472 797.078 341.551C798.237 340.631 799.095 339.42 799.652 337.92C800.209 336.42 800.487 334.795 800.487 333.045C800.487 331.295 800.209 329.665 799.652 328.153C799.095 326.642 798.237 325.42 797.078 324.489C795.919 323.557 794.442 323.091 792.646 323.091C790.851 323.091 789.374 323.557 788.214 324.489C787.055 325.42 786.197 326.642 785.641 328.153C785.084 329.665 784.805 331.295 784.805 333.045C784.805 334.795 785.084 336.42 785.641 337.92C786.197 339.42 787.055 340.631 788.214 341.551C789.374 342.472 790.851 342.932 792.646 342.932ZM820.537 346.545C818.355 346.545 816.429 345.994 814.759 344.892C813.088 343.778 811.781 342.21 810.838 340.187C809.895 338.153 809.423 335.75 809.423 332.977C809.423 330.227 809.895 327.841 810.838 325.818C811.781 323.795 813.094 322.233 814.776 321.131C816.457 320.028 818.401 319.477 820.605 319.477C822.31 319.477 823.656 319.761 824.645 320.33C825.645 320.886 826.406 321.523 826.929 322.239C827.463 322.943 827.878 323.523 828.173 323.977H828.514V311.091H832.537V346H828.651V341.977H828.173C827.878 342.455 827.457 343.057 826.912 343.784C826.366 344.5 825.588 345.142 824.577 345.71C823.565 346.267 822.219 346.545 820.537 346.545ZM821.082 342.932C822.696 342.932 824.06 342.511 825.173 341.67C826.287 340.818 827.134 339.642 827.713 338.142C828.293 336.631 828.582 334.886 828.582 332.909C828.582 330.955 828.298 329.244 827.73 327.778C827.162 326.301 826.321 325.153 825.207 324.335C824.094 323.506 822.719 323.091 821.082 323.091C819.378 323.091 817.957 323.528 816.821 324.403C815.696 325.267 814.849 326.443 814.281 327.932C813.724 329.409 813.446 331.068 813.446 332.909C813.446 334.773 813.73 336.466 814.298 337.989C814.878 339.5 815.73 340.705 816.855 341.602C817.991 342.489 819.401 342.932 821.082 342.932ZM856.963 335.295V319.818H860.986V346H856.963V341.568H856.69C856.077 342.898 855.122 344.028 853.827 344.96C852.531 345.881 850.895 346.341 848.918 346.341C847.281 346.341 845.827 345.983 844.554 345.267C843.281 344.54 842.281 343.449 841.554 341.994C840.827 340.528 840.463 338.682 840.463 336.455V319.818H844.486V336.182C844.486 338.091 845.02 339.614 846.088 340.75C847.168 341.886 848.543 342.455 850.213 342.455C851.213 342.455 852.23 342.199 853.264 341.687C854.31 341.176 855.185 340.392 855.889 339.335C856.605 338.278 856.963 336.932 856.963 335.295ZM878.99 346.545C876.535 346.545 874.422 345.966 872.649 344.807C870.876 343.648 869.513 342.051 868.558 340.017C867.604 337.983 867.126 335.659 867.126 333.045C867.126 330.386 867.615 328.04 868.592 326.006C869.581 323.96 870.956 322.364 872.717 321.216C874.49 320.057 876.558 319.477 878.922 319.477C880.763 319.477 882.422 319.818 883.899 320.5C885.376 321.182 886.587 322.136 887.53 323.364C888.473 324.591 889.058 326.023 889.285 327.659H885.263C884.956 326.466 884.274 325.409 883.217 324.489C882.172 323.557 880.763 323.091 878.99 323.091C877.422 323.091 876.047 323.5 874.865 324.318C873.695 325.125 872.78 326.267 872.121 327.744C871.473 329.21 871.149 330.932 871.149 332.909C871.149 334.932 871.467 336.693 872.104 338.193C872.751 339.693 873.66 340.858 874.831 341.687C876.013 342.517 877.399 342.932 878.99 342.932C880.035 342.932 880.984 342.75 881.837 342.386C882.689 342.023 883.41 341.5 884.001 340.818C884.592 340.136 885.013 339.318 885.263 338.364H889.285C889.058 339.909 888.496 341.301 887.598 342.54C886.712 343.767 885.535 344.744 884.07 345.472C882.615 346.187 880.922 346.545 878.99 346.545ZM906.553 319.818V323.227H892.984V319.818H906.553ZM896.939 313.545H900.962V338.5C900.962 339.636 901.126 340.489 901.456 341.057C901.797 341.614 902.229 341.989 902.751 342.182C903.285 342.364 903.848 342.455 904.439 342.455C904.882 342.455 905.246 342.432 905.53 342.386C905.814 342.33 906.041 342.284 906.212 342.25L907.03 345.864C906.757 345.966 906.376 346.068 905.888 346.17C905.399 346.284 904.78 346.341 904.03 346.341C902.893 346.341 901.78 346.097 900.689 345.608C899.609 345.119 898.712 344.375 897.996 343.375C897.291 342.375 896.939 341.114 896.939 339.591V313.545ZM930.68 325.682L927.067 326.705C926.839 326.102 926.504 325.517 926.061 324.949C925.629 324.369 925.038 323.892 924.288 323.517C923.538 323.142 922.578 322.955 921.408 322.955C919.805 322.955 918.47 323.324 917.402 324.062C916.345 324.79 915.817 325.716 915.817 326.841C915.817 327.841 916.18 328.631 916.908 329.21C917.635 329.79 918.771 330.273 920.317 330.659L924.203 331.614C926.544 332.182 928.288 333.051 929.436 334.222C930.584 335.381 931.158 336.875 931.158 338.705C931.158 340.205 930.726 341.545 929.862 342.727C929.01 343.909 927.817 344.841 926.283 345.523C924.749 346.205 922.964 346.545 920.93 346.545C918.26 346.545 916.05 345.966 914.3 344.807C912.55 343.648 911.442 341.955 910.976 339.727L914.794 338.773C915.158 340.182 915.845 341.239 916.857 341.943C917.879 342.648 919.214 343 920.862 343C922.737 343 924.226 342.602 925.328 341.807C926.442 341 926.999 340.034 926.999 338.909C926.999 338 926.68 337.239 926.044 336.625C925.408 336 924.43 335.534 923.112 335.227L918.749 334.205C916.351 333.636 914.589 332.756 913.464 331.562C912.351 330.358 911.794 328.852 911.794 327.045C911.794 325.568 912.209 324.261 913.038 323.125C913.879 321.989 915.021 321.097 916.464 320.449C917.919 319.801 919.567 319.477 921.408 319.477C923.999 319.477 926.033 320.045 927.51 321.182C928.999 322.318 930.055 323.818 930.68 325.682ZM589.068 377.818V381.227H575.5V377.818H589.068ZM579.455 371.545H583.477V396.5C583.477 397.636 583.642 398.489 583.972 399.057C584.312 399.614 584.744 399.989 585.267 400.182C585.801 400.364 586.364 400.455 586.955 400.455C587.398 400.455 587.761 400.432 588.045 400.386C588.33 400.33 588.557 400.284 588.727 400.25L589.545 403.864C589.273 403.966 588.892 404.068 588.403 404.17C587.915 404.284 587.295 404.341 586.545 404.341C585.409 404.341 584.295 404.097 583.205 403.608C582.125 403.119 581.227 402.375 580.511 401.375C579.807 400.375 579.455 399.114 579.455 397.591V371.545ZM599.705 388.25V404H595.682V369.091H599.705V381.909H600.045C600.659 380.557 601.58 379.483 602.807 378.687C604.045 377.881 605.693 377.477 607.75 377.477C609.534 377.477 611.097 377.835 612.437 378.551C613.778 379.256 614.818 380.341 615.557 381.807C616.307 383.261 616.682 385.114 616.682 387.364V404H612.659V387.636C612.659 385.557 612.119 383.949 611.04 382.812C609.972 381.665 608.489 381.091 606.591 381.091C605.273 381.091 604.091 381.369 603.045 381.926C602.011 382.483 601.193 383.295 600.591 384.364C600 385.432 599.705 386.727 599.705 388.25ZM631.746 404.614C630.087 404.614 628.581 404.301 627.229 403.676C625.876 403.04 624.803 402.125 624.007 400.932C623.212 399.727 622.814 398.273 622.814 396.568C622.814 395.068 623.109 393.852 623.7 392.92C624.291 391.977 625.081 391.239 626.07 390.705C627.058 390.17 628.149 389.773 629.342 389.511C630.547 389.239 631.757 389.023 632.973 388.864C634.564 388.659 635.854 388.506 636.842 388.403C637.842 388.29 638.57 388.102 639.024 387.841C639.49 387.58 639.723 387.125 639.723 386.477V386.341C639.723 384.659 639.263 383.352 638.342 382.42C637.433 381.489 636.053 381.023 634.2 381.023C632.28 381.023 630.774 381.443 629.683 382.284C628.592 383.125 627.825 384.023 627.382 384.977L623.564 383.614C624.246 382.023 625.155 380.784 626.291 379.898C627.439 379 628.689 378.375 630.041 378.023C631.405 377.659 632.746 377.477 634.064 377.477C634.905 377.477 635.871 377.58 636.962 377.784C638.064 377.977 639.126 378.381 640.149 378.994C641.183 379.608 642.041 380.534 642.723 381.773C643.405 383.011 643.746 384.67 643.746 386.75V404H639.723V400.455H639.518C639.246 401.023 638.791 401.631 638.155 402.278C637.518 402.926 636.672 403.477 635.615 403.932C634.558 404.386 633.268 404.614 631.746 404.614ZM632.359 401C633.95 401 635.291 400.687 636.382 400.062C637.484 399.437 638.314 398.631 638.871 397.642C639.439 396.653 639.723 395.614 639.723 394.523V390.841C639.553 391.045 639.178 391.233 638.598 391.403C638.03 391.562 637.371 391.705 636.621 391.83C635.882 391.943 635.161 392.045 634.456 392.136C633.763 392.216 633.2 392.284 632.768 392.341C631.723 392.477 630.746 392.699 629.837 393.006C628.939 393.301 628.212 393.75 627.655 394.352C627.109 394.943 626.837 395.75 626.837 396.773C626.837 398.17 627.354 399.227 628.388 399.943C629.433 400.648 630.757 401 632.359 401ZM662.474 377.818V381.227H648.906V377.818H662.474ZM652.861 371.545H656.884V396.5C656.884 397.636 657.048 398.489 657.378 399.057C657.719 399.614 658.151 399.989 658.673 400.182C659.207 400.364 659.77 400.455 660.361 400.455C660.804 400.455 661.168 400.432 661.452 400.386C661.736 400.33 661.963 400.284 662.134 400.25L662.952 403.864C662.679 403.966 662.298 404.068 661.81 404.17C661.321 404.284 660.702 404.341 659.952 404.341C658.815 404.341 657.702 404.097 656.611 403.608C655.531 403.119 654.634 402.375 653.918 401.375C653.213 400.375 652.861 399.114 652.861 397.591V371.545ZM686.048 388.25V404H682.026V377.818H685.912V381.909H686.253C686.866 380.58 687.798 379.511 689.048 378.705C690.298 377.886 691.912 377.477 693.889 377.477C695.662 377.477 697.213 377.841 698.543 378.568C699.872 379.284 700.906 380.375 701.645 381.841C702.384 383.295 702.753 385.136 702.753 387.364V404H698.73V387.636C698.73 385.58 698.196 383.977 697.128 382.83C696.06 381.67 694.594 381.091 692.73 381.091C691.446 381.091 690.298 381.369 689.287 381.926C688.287 382.483 687.497 383.295 686.918 384.364C686.338 385.432 686.048 386.727 686.048 388.25ZM720.74 404.545C718.376 404.545 716.303 403.983 714.518 402.858C712.746 401.733 711.359 400.159 710.359 398.136C709.371 396.114 708.876 393.75 708.876 391.045C708.876 388.318 709.371 385.937 710.359 383.903C711.359 381.869 712.746 380.29 714.518 379.165C716.303 378.04 718.376 377.477 720.74 377.477C723.104 377.477 725.172 378.04 726.945 379.165C728.729 380.29 730.115 381.869 731.104 383.903C732.104 385.937 732.604 388.318 732.604 391.045C732.604 393.75 732.104 396.114 731.104 398.136C730.115 400.159 728.729 401.733 726.945 402.858C725.172 403.983 723.104 404.545 720.74 404.545ZM720.74 400.932C722.536 400.932 724.013 400.472 725.172 399.551C726.331 398.631 727.189 397.42 727.746 395.92C728.303 394.42 728.581 392.795 728.581 391.045C728.581 389.295 728.303 387.665 727.746 386.153C727.189 384.642 726.331 383.42 725.172 382.489C724.013 381.557 722.536 381.091 720.74 381.091C718.945 381.091 717.467 381.557 716.308 382.489C715.149 383.42 714.291 384.642 713.734 386.153C713.178 387.665 712.899 389.295 712.899 391.045C712.899 392.795 713.178 394.42 713.734 395.92C714.291 397.42 715.149 398.631 716.308 399.551C717.467 400.472 718.945 400.932 720.74 400.932ZM762.881 404.545C760.517 404.545 758.443 403.983 756.659 402.858C754.886 401.733 753.5 400.159 752.5 398.136C751.511 396.114 751.017 393.75 751.017 391.045C751.017 388.318 751.511 385.937 752.5 383.903C753.5 381.869 754.886 380.29 756.659 379.165C758.443 378.04 760.517 377.477 762.881 377.477C765.244 377.477 767.312 378.04 769.085 379.165C770.869 380.29 772.256 381.869 773.244 383.903C774.244 385.937 774.744 388.318 774.744 391.045C774.744 393.75 774.244 396.114 773.244 398.136C772.256 400.159 770.869 401.733 769.085 402.858C767.312 403.983 765.244 404.545 762.881 404.545ZM762.881 400.932C764.676 400.932 766.153 400.472 767.312 399.551C768.472 398.631 769.33 397.42 769.886 395.92C770.443 394.42 770.722 392.795 770.722 391.045C770.722 389.295 770.443 387.665 769.886 386.153C769.33 384.642 768.472 383.42 767.312 382.489C766.153 381.557 764.676 381.091 762.881 381.091C761.085 381.091 759.608 381.557 758.449 382.489C757.29 383.42 756.432 384.642 755.875 386.153C755.318 387.665 755.04 389.295 755.04 391.045C755.04 392.795 755.318 394.42 755.875 395.92C756.432 397.42 757.29 398.631 758.449 399.551C759.608 400.472 761.085 400.932 762.881 400.932ZM784.908 388.25V404H780.885V377.818H784.771V381.909H785.112C785.726 380.58 786.658 379.511 787.908 378.705C789.158 377.886 790.771 377.477 792.749 377.477C794.521 377.477 796.072 377.841 797.402 378.568C798.732 379.284 799.766 380.375 800.504 381.841C801.243 383.295 801.612 385.136 801.612 387.364V404H797.589V387.636C797.589 385.58 797.055 383.977 795.987 382.83C794.919 381.67 793.453 381.091 791.589 381.091C790.305 381.091 789.158 381.369 788.146 381.926C787.146 382.483 786.357 383.295 785.777 384.364C785.197 385.432 784.908 386.727 784.908 388.25ZM819.94 404.545C817.418 404.545 815.241 403.989 813.412 402.875C811.594 401.75 810.19 400.182 809.202 398.17C808.224 396.148 807.736 393.795 807.736 391.114C807.736 388.432 808.224 386.068 809.202 384.023C810.19 381.966 811.565 380.364 813.327 379.216C815.099 378.057 817.168 377.477 819.531 377.477C820.895 377.477 822.241 377.705 823.571 378.159C824.901 378.614 826.111 379.352 827.202 380.375C828.293 381.386 829.162 382.727 829.81 384.398C830.457 386.068 830.781 388.125 830.781 390.568V392.273H810.599V388.795H826.69C826.69 387.318 826.395 386 825.804 384.841C825.224 383.682 824.395 382.767 823.315 382.097C822.247 381.426 820.986 381.091 819.531 381.091C817.929 381.091 816.543 381.489 815.372 382.284C814.213 383.068 813.321 384.091 812.696 385.352C812.071 386.614 811.759 387.966 811.759 389.409V391.727C811.759 393.705 812.099 395.381 812.781 396.756C813.474 398.119 814.435 399.159 815.662 399.875C816.889 400.58 818.315 400.932 819.94 400.932C820.997 400.932 821.952 400.784 822.804 400.489C823.668 400.182 824.412 399.727 825.037 399.125C825.662 398.511 826.145 397.75 826.486 396.841L830.372 397.932C829.963 399.25 829.276 400.409 828.31 401.409C827.344 402.398 826.151 403.17 824.73 403.727C823.31 404.273 821.713 404.545 819.94 404.545ZM850.946 404V369.091H854.969V381.977H855.31C855.605 381.523 856.014 380.943 856.537 380.239C857.071 379.523 857.832 378.886 858.821 378.33C859.821 377.761 861.173 377.477 862.878 377.477C865.082 377.477 867.026 378.028 868.707 379.131C870.389 380.233 871.702 381.795 872.645 383.818C873.588 385.841 874.06 388.227 874.06 390.977C874.06 393.75 873.588 396.153 872.645 398.187C871.702 400.21 870.395 401.778 868.724 402.892C867.054 403.994 865.128 404.545 862.946 404.545C861.264 404.545 859.918 404.267 858.906 403.71C857.895 403.142 857.116 402.5 856.571 401.784C856.026 401.057 855.605 400.455 855.31 399.977H854.832V404H850.946ZM854.901 390.909C854.901 392.886 855.19 394.631 855.77 396.142C856.349 397.642 857.196 398.818 858.31 399.67C859.423 400.511 860.787 400.932 862.401 400.932C864.082 400.932 865.486 400.489 866.611 399.602C867.747 398.705 868.599 397.5 869.168 395.989C869.747 394.466 870.037 392.773 870.037 390.909C870.037 389.068 869.753 387.409 869.185 385.932C868.628 384.443 867.781 383.267 866.645 382.403C865.52 381.528 864.105 381.091 862.401 381.091C860.764 381.091 859.389 381.506 858.276 382.335C857.162 383.153 856.321 384.301 855.753 385.778C855.185 387.244 854.901 388.955 854.901 390.909ZM896.713 393.295V377.818H900.736V404H896.713V399.568H896.44C895.827 400.898 894.872 402.028 893.577 402.96C892.281 403.881 890.645 404.341 888.668 404.341C887.031 404.341 885.577 403.983 884.304 403.267C883.031 402.54 882.031 401.449 881.304 399.994C880.577 398.528 880.213 396.682 880.213 394.455V377.818H884.236V394.182C884.236 396.091 884.77 397.614 885.838 398.75C886.918 399.886 888.293 400.455 889.963 400.455C890.963 400.455 891.98 400.199 893.014 399.687C894.06 399.176 894.935 398.392 895.639 397.335C896.355 396.278 896.713 394.932 896.713 393.295ZM910.695 413.818C910.013 413.818 909.405 413.761 908.871 413.648C908.337 413.545 907.967 413.443 907.763 413.341L908.785 409.795C909.763 410.045 910.626 410.136 911.376 410.068C912.126 410 912.791 409.665 913.371 409.062C913.962 408.472 914.501 407.511 914.99 406.182L915.74 404.136L906.058 377.818H910.422L917.649 398.682H917.922L925.149 377.818H929.513L918.399 407.818C917.899 409.17 917.28 410.29 916.541 411.176C915.803 412.074 914.945 412.739 913.967 413.17C913.001 413.602 911.91 413.818 910.695 413.818ZM953.368 383.682L949.754 384.705C949.527 384.102 949.192 383.517 948.749 382.949C948.317 382.369 947.726 381.892 946.976 381.517C946.226 381.142 945.266 380.955 944.095 380.955C942.493 380.955 941.158 381.324 940.089 382.062C939.033 382.79 938.504 383.716 938.504 384.841C938.504 385.841 938.868 386.631 939.595 387.21C940.322 387.79 941.459 388.273 943.004 388.659L946.891 389.614C949.232 390.182 950.976 391.051 952.124 392.222C953.271 393.381 953.845 394.875 953.845 396.705C953.845 398.205 953.413 399.545 952.55 400.727C951.697 401.909 950.504 402.841 948.97 403.523C947.436 404.205 945.652 404.545 943.618 404.545C940.947 404.545 938.737 403.966 936.987 402.807C935.237 401.648 934.129 399.955 933.663 397.727L937.482 396.773C937.845 398.182 938.533 399.239 939.544 399.943C940.567 400.648 941.902 401 943.55 401C945.425 401 946.913 400.602 948.016 399.807C949.129 399 949.686 398.034 949.686 396.909C949.686 396 949.368 395.239 948.732 394.625C948.095 394 947.118 393.534 945.8 393.227L941.436 392.205C939.038 391.636 937.277 390.756 936.152 389.562C935.038 388.358 934.482 386.852 934.482 385.045C934.482 383.568 934.896 382.261 935.726 381.125C936.567 379.989 937.709 379.097 939.152 378.449C940.607 377.801 942.254 377.477 944.095 377.477C946.686 377.477 948.72 378.045 950.197 379.182C951.686 380.318 952.743 381.818 953.368 383.682Z" fill="black"/>
<path d="M737.334 250.498L758.429 216.722M634.434 181.755C637.235 192.481 643.89 195.992 649.698 196.158C654.812 196.305 664.136 192.368 672.232 193.835C679.974 195.238 686.191 202.829 689.183 212.554M661.426 167.218L661.408 167.151M723.384 157.587L723.366 157.52M658.741 261.561L658.724 261.494M688.448 167.078C691.181 177.137 696.604 182.865 704.989 187.104M676.169 233.512C667.015 230.509 658.902 229.113 648.4 235.507M784 252.478L701.167 249.522L739.213 188.267L784 252.478Z" stroke="black" stroke-width="8.33333" stroke-linecap="round" stroke-linejoin="round"/>
<path d="M994.407 356.042C994.407 356.042 1002.53 360.72 1011.15 357.027C1019.77 353.334 1021.98 344.225 1021.98 344.225M1011.15 328.468L1011.18 328.453M990.468 337.331L990.502 337.316M1039.71 328.468C1047.87 347.504 1039.05 369.549 1020.01 377.708C1000.98 385.866 978.93 377.048 970.772 358.012C962.614 338.976 971.432 316.93 990.468 308.772C1009.5 300.614 1031.55 309.432 1039.71 328.468ZM1012.87 327.729C1013.28 328.681 1012.84 329.783 1011.89 330.191C1010.94 330.599 1009.83 330.158 1009.43 329.207C1009.02 328.255 1009.46 327.152 1010.41 326.745C1011.36 326.337 1012.46 326.778 1012.87 327.729ZM992.191 336.593C992.599 337.544 992.158 338.647 991.207 339.055C990.255 339.462 989.152 339.022 988.745 338.07C988.337 337.118 988.778 336.016 989.729 335.608C990.681 335.2 991.783 335.641 992.191 336.593Z" stroke="black" stroke-width="8.33333" stroke-linecap="round" stroke-linejoin="round"/>
<path d="M1050.07 83.1787C1052.26 80.6567 1052.99 77.2224 1052.02 73.9928L1049.92 67.0391C1049.79 66.6013 1049.77 66.1375 1049.87 65.697L1051.35 58.7045C1052.03 55.4563 1051.01 52.0419 1048.6 49.5701L1043.42 44.2485C1043.09 43.9134 1042.85 43.5048 1042.72 43.0667L1040.63 36.1135C1039.66 32.8837 1037.11 30.2703 1033.82 29.1226L1026.73 26.6521C1026.29 26.4966 1025.88 26.2371 1025.55 25.9021L1020.37 20.581L1020.37 20.5809C1017.96 18.1094 1014.48 16.8962 1011.06 17.3354L1003.69 18.2819C1003.23 18.3412 1002.75 18.2906 1002.3 18.1351L995.213 15.6647C991.921 14.517 988.303 14.9817 985.535 16.9078L979.574 21.0546C979.199 21.3159 978.755 21.4851 978.291 21.5449L970.924 22.4911C967.502 22.9303 964.574 24.9665 963.093 27.9379L959.905 34.3351C959.704 34.7376 959.4 35.0884 959.024 35.3498L953.064 39.4963C950.296 41.4223 948.73 44.5637 948.876 47.8996L949.191 55.0809C949.21 55.5331 949.115 55.985 948.914 56.3882L945.725 62.785C944.245 65.7563 944.399 69.2831 946.139 72.2192L949.884 78.5404C950.12 78.9388 950.255 79.3883 950.275 79.8402L950.59 87.0214C950.679 89.0499 951.397 90.991 952.603 92.6212C951.026 108.126 960.767 123.544 976.827 129.143L977.668 129.436C993.729 135.035 1010.94 129.015 1019.35 115.89C1021.31 115.363 1023.08 114.289 1024.41 112.756L1029.12 107.326C1029.41 106.984 1029.8 106.716 1030.23 106.551L1037.09 103.928C1040.28 102.71 1042.6 100.044 1043.28 96.7955L1044.76 89.8032C1044.86 89.3626 1045.06 88.9493 1045.36 88.6074L1050.07 83.1787ZM1015.42 106.535C1010.56 120.461 994.708 127.64 980.074 122.538L979.233 122.245C964.6 117.144 956.644 101.663 961.499 87.7377L969.827 63.8487C970.916 60.7241 974.474 59.1131 977.758 60.2579C980.353 61.1626 982.586 62.7822 984.215 64.9416L986.066 67.3935C988.676 70.8536 992.267 73.3803 996.255 74.7701C1000.24 76.16 1004.63 76.4138 1008.82 75.3271L1011.8 74.5567C1014.41 73.8783 1017.17 73.998 1019.77 74.9028C1023.05 76.0476 1024.83 79.5212 1023.75 82.6458L1015.42 106.535L1015.42 106.535ZM1044.15 78.3698L1039.44 83.7992C1038.36 85.0365 1037.62 86.5332 1037.28 88.1268L1035.8 95.1189C1035.61 96.0163 1034.97 96.7533 1034.09 97.09L1027.23 99.7127C1026.68 99.9207 1026.16 100.177 1025.66 100.471L1031 85.1734C1033.41 78.2452 1029.45 70.5437 1022.17 68.0055C1018.08 66.5785 1013.73 66.3898 1009.6 67.4596L1006.63 68.23C1001.31 69.6082 995.509 67.5868 992.199 63.2001L990.349 60.7479C987.778 57.342 984.256 54.7873 980.163 53.3603C972.882 50.822 964.994 54.3939 962.579 61.3219L957.246 76.6189C957.04 76.0798 956.789 75.5547 956.492 75.0531L952.747 68.7319C952.266 67.9205 952.224 66.9456 952.633 66.1247L955.821 59.7284C956.548 58.2706 956.894 56.6348 956.822 54.9978L956.507 47.8162C956.467 46.8944 956.899 46.0265 957.665 45.4939L963.624 41.3479C964.983 40.4027 966.085 39.1323 966.812 37.6746L970 31.2783C970.409 30.4572 971.218 29.8941 972.164 29.7728L979.531 28.8264C981.211 28.6106 982.816 27.9971 984.174 27.0523L990.135 22.9056C990.9 22.3735 991.9 22.2451 992.809 22.5623L999.896 25.0328C1001.51 25.5959 1003.25 25.7794 1004.93 25.5637L1012.3 24.6171C1013.24 24.4959 1014.21 24.8313 1014.87 25.5142L1020.05 30.8357C1021.23 32.0485 1022.71 32.9872 1024.33 33.5503L1031.41 36.0208C1032.32 36.3379 1033.03 37.0602 1033.3 37.9527L1035.39 44.9058C1035.86 46.4905 1036.74 47.9693 1037.92 49.1824L1043.1 54.5039C1043.77 55.187 1044.05 56.1308 1043.86 57.0282L1042.38 64.0199C1042.04 65.6137 1042.12 67.2941 1042.59 68.8789L1044.69 75.8323C1044.95 76.7239 1044.75 77.6729 1044.15 78.3698Z" fill="black"/>
<path d="M993.56 82.502C987.11 80.2531 980.121 83.4176 977.981 89.5561C975.841 95.6946 979.347 102.518 985.798 104.767C992.249 107.016 999.238 103.851 1001.38 97.7129C1003.52 91.5744 1000.01 84.7508 993.56 82.502ZM988.203 97.8695C985.749 97.0141 984.415 94.4185 985.229 92.0833C986.043 89.7482 988.702 88.5446 991.155 89.4C993.609 90.2554 994.943 92.851 994.129 95.1862C993.315 97.5213 990.656 98.7249 988.203 97.8695Z" fill="black"/>
<path d="M1019.34 86.7291C1018.57 83.141 1015.87 80.1344 1012.27 78.8821C1008.68 77.6295 1004.69 78.301 1001.86 80.6349C1000.28 81.9338 1000.13 84.2502 1001.53 85.8082C1002 86.3221 1002.57 86.6894 1003.18 86.9043C1004.43 87.3405 1005.87 87.1475 1006.92 86.2772C1007.73 85.617 1008.85 85.4267 1009.87 85.7804C1010.88 86.1339 1011.65 86.9843 1011.87 87.9994C1012.29 89.9978 1014.32 91.3334 1016.38 90.9821C1018.45 90.6313 1019.77 88.727 1019.34 86.7291Z" fill="black"/>
<path d="M988.224 75.8801C987.455 72.2921 984.746 69.2854 981.154 68.0332C977.561 66.7806 973.569 67.4521 970.736 69.786C969.159 71.0849 969.015 73.4012 970.414 74.9593C970.876 75.4732 971.448 75.8405 972.064 76.0553C973.316 76.4915 974.748 76.2985 975.805 75.4282C976.606 74.768 977.735 74.5777 978.749 74.9314C979.763 75.2849 980.529 76.1353 980.746 77.1505C981.175 79.1487 983.197 80.4845 985.261 80.1331C987.326 79.7823 988.652 77.878 988.224 75.8801Z" fill="black"/>
<path d="M1008.79 99.0039C1006.78 98.3062 1004.62 99.2847 1003.96 101.189C1001.25 108.968 992.391 112.978 984.217 110.128L983.703 109.949C975.529 107.099 971.085 98.4525 973.797 90.6739C974.461 88.7693 973.376 86.6593 971.375 85.9615C969.373 85.2638 967.212 86.2423 966.548 88.1469C962.51 99.7289 969.127 112.603 981.298 116.847L981.812 117.026C993.984 121.269 1007.17 115.298 1011.21 103.716C1011.87 101.812 1010.79 99.7018 1008.79 99.0039Z" fill="black"/>
<path d="M620.274 46.0154L614.602 31.8592M660.548 62.7371L651.095 39.1434M625.328 35.7762L609.548 42.0984M668.972 45.6718L642.671 56.2088M654.158 91.665C660.618 89.0769 666.254 85.3707 670.882 80.9141C669.464 97.385 657.911 113.079 640.055 120.232C615.74 129.973 588.944 120.188 580.206 98.3755C573.788 82.3581 578.893 64.3096 591.686 51.9925C591.172 57.952 591.986 64.0132 594.308 69.8085C603.046 91.6212 629.842 101.407 654.158 91.665Z" stroke="black" stroke-width="8.33333" stroke-linecap="round" stroke-linejoin="round"/>
<path d="M482.49 286V309.556M482.49 309.556V368.444M482.49 309.556L459.532 291.889M482.49 309.556L505.448 291.889M482.49 368.444V392M482.49 368.444L459.532 386.111M482.49 368.444L505.448 386.111M422.852 312.5L449.361 324.278M449.361 324.278L515.635 353.722M449.361 324.278L418 330.744M449.361 324.278L440.958 300.145M515.635 353.722L542.145 365.5M515.635 353.722L524.039 377.855M515.635 353.722L546.997 347.256M422.855 365.5L449.365 353.722M449.365 353.722L515.639 324.278M449.365 353.722L418.004 347.256M449.365 353.722L440.962 377.855M515.639 324.278L542.149 312.5M515.639 324.278L524.042 300.145M515.639 324.278L547 330.744" stroke="black" stroke-width="8.33333" stroke-linecap="round" stroke-linejoin="round"/>
<path d="M521.984 181.562C527.057 178.419 533.032 177.196 538.594 178.162C544.157 179.128 548.851 182.204 551.644 186.713C555.966 193.687 560.778 197.933 565.202 200.507C570.854 203.796 573.68 205.44 573.954 206.045C574.275 206.752 574.278 206.999 573.977 207.714C573.72 208.327 571.428 209.747 566.843 212.587L529.793 235.543C525.209 238.383 522.916 239.803 522.253 239.761C521.479 239.712 521.259 239.599 520.769 238.997C520.349 238.482 520.135 235.219 519.707 228.694C519.372 223.587 517.712 217.388 513.391 210.413C510.598 205.904 509.934 200.331 511.545 194.92C513.157 189.51 516.912 184.704 521.984 181.562ZM521.984 181.562L517.595 174.478M545.529 240.497C549.399 241.155 553.515 240.459 557.114 238.23C560.712 236 563.168 232.624 564.302 228.867" stroke="black" stroke-width="8.33333" stroke-linecap="round" stroke-linejoin="round"/>
<path d="M401.969 76V29.4545H422.151C425.696 29.4545 428.673 29.9318 431.082 30.8864C433.507 31.8409 435.332 33.1894 436.56 34.9318C437.802 36.6742 438.423 38.7273 438.423 41.0909C438.423 42.803 438.045 44.3636 437.287 45.7727C436.545 47.1818 435.499 48.3636 434.151 49.3182C432.802 50.2576 431.226 50.9091 429.423 51.2727V51.7273C431.423 51.803 433.241 52.3106 434.878 53.25C436.514 54.1742 437.817 55.4545 438.787 57.0909C439.757 58.7121 440.241 60.6212 440.241 62.8182C440.241 65.3636 439.575 67.6288 438.241 69.6136C436.923 71.5985 435.045 73.1591 432.605 74.2955C430.166 75.4318 427.257 76 423.878 76H401.969ZM414.605 65.9091H420.514C422.635 65.9091 424.226 65.5152 425.287 64.7273C426.348 63.9242 426.878 62.7424 426.878 61.1818C426.878 60.0909 426.628 59.1667 426.128 58.4091C425.628 57.6515 424.916 57.0758 423.991 56.6818C423.082 56.2879 421.984 56.0909 420.696 56.0909H414.605V65.9091ZM414.605 48.2727H419.787C420.893 48.2727 421.87 48.0985 422.719 47.75C423.567 47.4015 424.226 46.9015 424.696 46.25C425.181 45.5833 425.423 44.7727 425.423 43.8182C425.423 42.3788 424.908 41.2803 423.878 40.5227C422.848 39.75 421.545 39.3636 419.969 39.3636H414.605V48.2727ZM467.537 60.7273V41.0909H480.082V76H468.173V69.3636H467.81C467.052 71.5909 465.726 73.3333 463.832 74.5909C461.938 75.8333 459.688 76.4545 457.082 76.4545C454.643 76.4545 452.507 75.8939 450.673 74.7727C448.855 73.6515 447.438 72.1061 446.423 70.1364C445.423 68.1667 444.916 65.9091 444.901 63.3636V41.0909H457.446V60.7273C457.461 62.4545 457.901 63.8106 458.764 64.7955C459.643 65.7803 460.87 66.2727 462.446 66.2727C463.491 66.2727 464.393 66.053 465.151 65.6136C465.923 65.1591 466.514 64.5227 466.923 63.7045C467.348 62.8712 467.552 61.8788 467.537 60.7273ZM494.099 89.0909C492.66 89.0909 491.289 88.9773 489.986 88.75C488.683 88.5379 487.539 88.2424 486.554 87.8636L489.281 78.9545C490.312 79.3182 491.251 79.553 492.099 79.6591C492.963 79.7652 493.698 79.7045 494.304 79.4773C494.925 79.25 495.372 78.8182 495.645 78.1818L495.918 77.5455L483.645 41.0909H496.736L502.372 65.2727H502.736L508.463 41.0909H521.645L508.918 78.9091C508.281 80.8333 507.357 82.5606 506.145 84.0909C504.948 85.6364 503.372 86.8561 501.418 87.75C499.463 88.6439 497.024 89.0909 494.099 89.0909ZM436.946 135C436.946 140.591 436.181 145.735 434.651 150.432C433.135 155.129 430.719 159.5 427.401 163.545H415.128C416.385 162.045 417.545 160.22 418.605 158.068C419.666 155.932 420.582 153.591 421.355 151.045C422.143 148.5 422.757 145.864 423.196 143.136C423.635 140.394 423.855 137.682 423.855 135C423.855 131.424 423.476 127.826 422.719 124.205C421.961 120.568 420.923 117.205 419.605 114.114C418.287 111.008 416.795 108.455 415.128 106.455H427.401C430.719 110.5 433.135 114.871 434.651 119.568C436.181 124.265 436.946 129.409 436.946 135ZM452.406 153.727C450.649 153.727 449.141 153.114 447.884 151.886C446.641 150.644 446.027 149.136 446.043 147.364C446.027 145.636 446.641 144.159 447.884 142.932C449.141 141.705 450.649 141.091 452.406 141.091C454.073 141.091 455.543 141.705 456.815 142.932C458.103 144.159 458.755 145.636 458.77 147.364C458.755 148.545 458.444 149.621 457.838 150.591C457.247 151.545 456.474 152.311 455.52 152.886C454.565 153.447 453.527 153.727 452.406 153.727ZM452.406 130.273C450.649 130.273 449.141 129.659 447.884 128.432C446.641 127.189 446.027 125.682 446.043 123.909C446.027 122.182 446.641 120.705 447.884 119.477C449.141 118.25 450.649 117.636 452.406 117.636C454.073 117.636 455.543 118.25 456.815 119.477C458.103 120.705 458.755 122.182 458.77 123.909C458.755 125.091 458.444 126.167 457.838 127.136C457.247 128.091 456.474 128.856 455.52 129.432C454.565 129.992 453.527 130.273 452.406 130.273ZM467.679 139.545V128.636L501.497 115.091V126.545L479.952 134L480.315 133.455V134.727L479.952 134.182L501.497 141.636V153.091L467.679 139.545Z" fill="black"/>
</svg>
